<?xml version="1.0" standalone="no"?>
<!DOCTYPE svg PUBLIC "-//W3C//DTD SVG 20010904//EN"
 "http://www.w3.org/TR/2001/REC-SVG-20010904/DTD/svg10.dtd">
<svg version="1.0" xmlns="http://www.w3.org/2000/svg"
 width="1200.000000pt" height="670.000000pt" viewBox="0 0 1200.000000 670.000000"
 preserveAspectRatio="xMidYMid meet">
<g transform="translate(0.000000,670.000000) scale(0.100000,-0.100000)"
fill="#000000" stroke="none">
<path d="M5935 6420 c-22 -11 -69 -42 -105 -70 -36 -27 -689 -674 -1451 -1437
-1310 -1312 -1471 -1479 -1461 -1516 1 -4 -5 -21 -13 -37 -14 -28 -14 -33 5
-67 57 -106 79 -132 260 -309 58 -57 111 -109 118 -116 7 -7 583 -584 1280
-1283 1356 -1359 1336 -1340 1433 -1340 40 0 58 8 117 48 39 26 89 68 111 93
23 24 43 44 45 44 2 0 277 275 612 611 335 336 916 918 1292 1292 376 375 709
708 740 740 75 77 170 212 178 253 7 36 -14 83 -74 164 -47 63 -42 58 -216
229 -86 84 -156 155 -156 157 0 2 -48 49 -107 106 -59 57 -133 131 -166 165
-33 34 -431 433 -884 885 -454 453 -927 926 -1051 1052 -236 238 -341 326
-408 345 -51 14 -52 14 -99 -9z m85 -68 c0 -8 2730 -2743 2914 -2920 47 -45
86 -84 86 -85 0 -1 -656 -659 -1456 -1462 -801 -803 -1480 -1486 -1508 -1517
l-52 -57 -1515 1515 -1515 1515 1498 1499 c824 824 1498 1503 1498 1509 0 6
11 11 25 11 14 0 25 -4 25 -8z"/>
<path d="M4720 4609 l-1266 -1268 1270 -1271 c699 -698 1271 -1270 1271 -1270
2 0 2545 2545 2545 2547 0 1 -69 69 -152 152 -84 82 -656 651 -1270 1265 -614
614 -1120 1115 -1125 1114 -4 -1 -577 -572 -1273 -1269z m1532 854 c261 -259
298 -296 319 -320 9 -10 232 -233 495 -496 264 -262 484 -482 489 -487 6 -6
66 -66 135 -134 69 -68 168 -168 222 -222 53 -55 169 -171 257 -258 212 -210
210 -190 34 -375 -71 -74 -155 -159 -187 -190 -108 -102 -1166 -1159 -1166
-1165 0 -3 -21 -25 -47 -48 -84 -75 -233 -228 -233 -238 0 -6 -5 -10 -11 -10
-6 0 -113 -103 -237 -229 -211 -213 -303 -291 -341 -291 -17 0 -59 39 -117
108 -20 23 -40 42 -45 42 -4 0 -131 124 -281 276 -150 152 -297 299 -327 328
-29 28 -200 198 -380 378 -179 181 -332 328 -338 328 -7 0 -13 5 -13 11 0 7
-170 181 -377 388 -208 207 -393 394 -410 416 -38 46 -41 75 -14 119 11 17
208 218 438 447 230 229 502 501 605 605 103 104 292 293 420 420 128 127 290
289 360 360 415 420 445 447 516 453 8 0 113 -97 234 -216z"/>
<path d="M6020 5416 c0 -63 32 -233 62 -326 28 -87 101 -258 145 -339 116
-212 245 -375 495 -623 98 -98 178 -182 178 -186 0 -5 -15 -21 -32 -36 -18
-15 -358 -351 -755 -748 l-722 -721 -390 394 c-214 217 -417 417 -450 444 -33
28 -60 55 -60 60 -1 6 223 236 497 510 273 275 524 533 556 573 161 198 293
447 376 707 19 59 50 228 50 271 0 23 -4 46 -10 49 -5 3 -10 1 -10 -5 0 -7 -6
-10 -14 -7 -15 6 -44 -47 -71 -128 -23 -70 -64 -182 -86 -232 -11 -24 -19 -47
-19 -51 0 -11 -77 -169 -125 -259 -55 -102 -155 -238 -262 -358 -25 -27 -226
-232 -447 -455 -372 -374 -485 -498 -486 -532 0 -7 -7 -22 -15 -32 -22 -30
-18 -59 16 -123 37 -68 98 -142 187 -227 35 -34 120 -119 190 -190 70 -71 142
-143 160 -160 19 -17 81 -77 138 -134 58 -56 129 -119 159 -139 30 -20 55 -39
55 -43 0 -4 11 -12 25 -18 13 -6 34 -30 46 -53 12 -24 28 -49 35 -57 8 -8 21
-28 28 -46 7 -18 46 -81 86 -141 78 -116 199 -343 220 -410 7 -22 18 -53 25
-70 7 -16 16 -47 20 -68 3 -20 21 -66 40 -102 19 -36 35 -71 35 -79 0 -7 7
-19 15 -26 8 -7 15 -21 15 -31 0 -11 5 -19 11 -19 7 0 18 -8 25 -17 12 -16 13
-9 14 48 0 168 -93 452 -227 686 -58 102 -161 255 -205 303 -55 60 -63 45 103
211 l152 153 29 -35 c27 -32 114 -159 152 -221 9 -16 20 -28 25 -28 5 0 21 24
36 52 44 84 143 203 324 391 142 147 174 186 205 248 52 108 67 175 65 307
l-1 114 183 186 c101 103 187 188 190 190 10 5 499 -490 499 -504 0 -7 -8 -18
-17 -23 -24 -13 -926 -919 -998 -1001 -170 -196 -344 -514 -414 -755 -47 -163
-67 -345 -38 -345 13 0 47 54 47 76 0 7 13 42 29 76 42 92 76 175 101 246 13
34 27 65 31 68 5 3 9 15 9 27 0 13 6 31 13 42 8 11 42 74 77 140 66 126 110
196 144 231 12 11 30 33 41 49 54 77 135 162 479 507 358 358 501 511 551 589
27 42 32 121 9 140 -8 6 -14 16 -14 22 0 40 -332 385 -436 452 -80 52 -139
106 -160 146 -9 18 -20 37 -25 43 -40 52 -121 141 -223 247 -123 129 -137 145
-223 259 -120 160 -244 398 -288 552 -7 26 -36 98 -64 160 -28 62 -51 118 -51
125 0 13 -43 63 -54 63 -3 0 -6 -24 -6 -54z m469 -2105 c21 -14 9 -116 -21
-176 -14 -27 -34 -66 -43 -85 -10 -19 -73 -93 -140 -165 -67 -71 -137 -147
-156 -169 -19 -21 -56 -56 -82 -79 l-49 -40 -48 24 c-64 32 -88 74 -69 121 8
20 110 129 253 270 133 131 256 253 275 273 35 35 55 42 80 26z"/>
<path d="M5956 4281 c-39 -76 -136 -192 -310 -371 -170 -174 -212 -232 -254
-353 -23 -65 -26 -88 -26 -222 -1 -117 3 -162 17 -207 10 -32 22 -60 26 -62 4
-3 209 196 454 441 l447 446 -68 66 c-82 79 -139 150 -193 242 -23 38 -47 69
-55 69 -8 0 -25 -22 -38 -49z m98 -241 c40 -45 53 -82 40 -117 -13 -35 -523
-542 -553 -550 -56 -14 -66 59 -23 164 40 100 87 166 198 279 54 55 130 134
167 175 61 66 87 85 123 88 7 1 28 -17 48 -39z"/>
</g>
</svg>
